<?xml version="1.0" standalone="no"?>
<!DOCTYPE svg PUBLIC "-//W3C//DTD SVG 20010904//EN"
 "http://www.w3.org/TR/2001/REC-SVG-20010904/DTD/svg10.dtd">
<svg version="1.0" xmlns="http://www.w3.org/2000/svg"
 width="512.000000pt" height="512.000000pt" viewBox="0 0 512.000000 512.000000"
 preserveAspectRatio="xMidYMid meet">

<g transform="translate(0.000000,512.000000) scale(0.100000,-0.100000)"
fill="#000000" stroke="none">
<path d="M2335 5109 c-481 -44 -917 -213 -1315 -507 -131 -97 -372 -333 -472
-462 -291 -376 -469 -808 -529 -1285 -16 -129 -16 -461 0 -590 51 -406 187
-778 405 -1110 415 -631 1077 -1040 1841 -1136 129 -16 461 -16 590 0 241 30
482 95 702 187 474 198 890 553 1177 1004 63 98 185 349 231 474 94 255 155
599 155 876 0 277 -61 621 -155 876 -46 125 -168 376 -231 474 -199 313 -466
586 -776 793 -119 79 -379 209 -522 262 -334 123 -747 177 -1101 144z m520
-768 c165 -38 317 -73 338 -76 l37 -7 2 -57 2 -56 3 48 c3 28 9 47 16 47 7 0
44 -9 82 -19 39 -11 97 -25 130 -31 117 -24 184 -77 211 -165 9 -30 17 -116
21 -217 l6 -168 -61 0 c-48 0 -62 -3 -62 -15 0 -10 15 -15 55 -17 l54 -3 5
-347 c4 -297 3 -348 -9 -348 -8 0 -18 12 -21 28 -9 35 -22 52 -51 63 -21 8
-23 15 -23 76 0 38 3 85 6 106 6 31 9 35 21 26 10 -9 17 -9 25 -1 17 17 1 30
-34 28 -28 -1 -36 -8 -51 -40 -13 -28 -15 -41 -7 -46 7 -4 10 -32 8 -76 -2
-53 -6 -69 -18 -69 -13 0 -15 31 -18 208 -3 215 -1 222 38 197 11 -7 18 -3 27
13 20 35 16 43 -34 65 -27 11 -74 31 -105 46 l-58 26 -15 -30 c-15 -29 -15
-30 15 -45 l30 -16 0 -230 c0 -216 -1 -233 -20 -256 -11 -14 -20 -36 -20 -49
0 -24 0 -24 -124 -24 l-123 0 -7 40 -6 40 -49 0 c-44 0 -49 3 -55 25 -4 14 -6
28 -6 31 0 4 52 6 115 5 86 -2 121 2 144 13 61 32 61 31 61 366 0 287 -1 307
-20 338 -11 18 -32 37 -46 42 -15 6 -190 10 -427 10 -383 0 -404 -1 -434 -20
l-33 -20 0 215 0 215 220 2 221 3 -139 42 -139 42 -107 -41 c-59 -23 -102 -44
-97 -47 6 -4 11 -191 12 -506 1 -275 5 -522 9 -548 5 -32 16 -58 34 -75 26
-27 29 -27 176 -30 83 -2 150 -5 150 -7 0 -2 -5 -15 -11 -28 l-11 -24 -254 5
c-230 4 -254 3 -254 -12 0 -14 21 -16 195 -16 l195 0 0 -30 0 -30 -200 0
c-110 0 -200 -3 -200 -8 0 -4 7 -18 16 -30 l15 -22 855 0 c470 0 854 -3 854
-7 0 -4 -12 -20 -27 -35 l-27 -28 -862 0 c-813 0 -863 1 -868 18 -3 9 -12 71
-21 137 -35 260 -55 358 -82 397 -42 61 -87 76 -240 80 l-133 3 0 28 c0 25 3
27 39 27 58 0 101 11 101 26 0 9 -20 14 -72 16 -67 3 -73 5 -76 26 -3 20 1 22
41 22 64 0 107 10 107 26 0 11 -17 14 -69 14 -65 0 -69 1 -73 25 -3 13 -3 27
0 30 3 3 36 5 74 5 51 0 68 3 68 14 0 15 -42 26 -100 26 -29 0 -39 4 -43 20
-5 18 0 20 38 20 62 0 105 11 105 26 0 11 -17 14 -68 14 -76 0 -82 2 -75 31 5
16 14 19 74 19 62 0 69 2 69 20 0 18 -7 20 -70 20 -68 0 -70 1 -70 25 0 24 3
25 58 26 31 1 63 1 70 0 6 -1 12 7 12 19 0 18 -6 20 -70 20 -68 0 -70 1 -70
25 0 25 0 25 95 25 l95 0 0 -265 c0 -229 2 -265 15 -265 13 0 15 36 15 265 0
258 1 265 20 265 18 0 20 -7 21 -67 1 -38 2 -79 3 -93 1 -14 3 -105 4 -202 1
-111 6 -178 12 -178 6 0 10 95 10 265 l0 266 83 -3 82 -3 3 -180 c2 -125 7
-182 15 -187 16 -10 27 353 12 364 -12 8 -371 108 -386 108 -23 0 -253 -105
-237 -108 15 -3 16 -30 15 -290 -2 -280 -3 -287 -22 -287 -20 0 -20 7 -20 288
0 158 -1 287 -2 287 -1 0 -8 -3 -17 -6 -14 -5 -16 -40 -16 -289 0 -274 -1
-283 -20 -288 -20 -5 -20 0 -20 297 l0 302 26 52 c31 62 81 106 138 121 22 6
183 45 356 86 173 42 376 91 450 109 74 19 144 35 155 35 11 1 155 -30 320
-68z m-1247 -639 c2 -287 2 -292 -18 -292 -20 0 -20 6 -20 296 0 276 1 295 18
292 16 -3 17 -26 20 -296z m1617 50 c3 -4 11 -7 17 -7 6 0 15 -7 21 -16 8 -13
-3 -30 -54 -82 -35 -37 -69 -67 -76 -67 -6 0 -15 -5 -19 -12 -5 -7 -2 -8 7 -3
8 4 1 -6 -15 -23 -21 -23 -33 -29 -42 -21 -8 7 -14 7 -19 -1 -3 -6 -11 -7 -17
-4 -7 4 -8 2 -4 -5 6 -9 11 -9 22 0 11 9 14 9 14 0 0 -14 -79 -91 -93 -91 -5
0 -3 8 4 18 12 15 12 16 -2 5 -9 -7 -20 -9 -25 -5 -4 4 -3 0 4 -9 6 -9 8 -20
4 -24 -4 -5 -1 -5 7 0 9 5 12 4 7 -3 -4 -7 -14 -12 -22 -12 -8 0 -14 -4 -14
-9 0 -15 -61 -72 -70 -66 -5 3 -12 0 -16 -6 -5 -8 -3 -9 7 -4 18 10 -41 -56
-61 -70 -27 -17 -49 -15 -60 5 -7 14 -7 20 0 20 5 0 10 -4 10 -10 0 -5 4 -10
9 -10 5 0 7 9 4 20 -3 11 -9 17 -14 14 -5 -3 -9 -3 -9 1 0 8 71 78 74 74 2 -2
8 -13 14 -24 6 -11 12 -15 12 -8 0 7 -11 24 -24 38 -15 16 -22 33 -19 43 4 10
8 12 11 4 9 -29 48 5 44 38 -1 9 20 30 27 26 4 -3 7 4 7 15 0 16 -4 15 -31
-11 -16 -16 -81 -79 -143 -140 l-113 -110 -72 -2 c-40 0 -81 -1 -92 -2 -19 -1
-20 6 -23 248 -2 211 0 253 13 273 l16 23 393 0 c216 -1 397 -4 401 -8z m260
-527 c0 -189 -2 -220 -15 -220 -13 0 -15 33 -18 223 -2 209 -1 223 15 220 17
-3 18 -21 18 -223z m-1548 109 c52 -39 60 -67 100 -349 l38 -270 28 -3 c31 -4
35 -26 11 -60 -12 -17 -25 -22 -58 -22 -36 0 -49 6 -75 32 -17 17 -31 38 -31
45 0 10 -24 13 -100 13 -72 0 -102 4 -104 13 -3 6 -6 44 -9 82 l-5 70 17 -55
17 -55 73 -3 c41 -2 79 -1 86 2 9 3 9 21 -1 78 -6 40 -22 139 -34 221 l-23
147 -152 0 c-147 0 -153 -1 -178 -24 -32 -30 -41 -63 -34 -124 4 -38 12 -53
40 -77 l34 -30 13 -140 c7 -87 18 -149 27 -163 42 -67 -46 -25 -95 45 -19 26
-32 84 -68 300 -24 146 -44 286 -44 311 l0 44 249 -3 c235 -4 251 -5 278 -25z
m-202 -234 c0 -67 -19 -83 -29 -25 l-7 35 -60 0 -61 0 4 -32 c4 -37 -17 -50
-26 -16 -9 37 -7 73 6 86 7 7 43 12 93 12 l80 0 0 -60z m1103 38 c-2 -7 4 -13
12 -13 8 0 14 6 12 13 -1 9 45 12 208 12 122 0 210 -4 210 -9 0 -5 -12 -19
-26 -30 -26 -20 -37 -21 -414 -21 -377 0 -388 1 -414 21 -14 11 -26 25 -26 30
0 5 91 9 220 9 171 0 219 -3 218 -12z m-1174 -120 c2 -29 10 -114 16 -188 8
-98 17 -144 30 -167 21 -37 16 -41 -16 -15 -44 35 -55 75 -64 245 -5 89 -6
165 -4 169 3 4 11 8 19 8 9 0 15 -17 19 -52z m1197 22 c10 -6 19 -20 19 -30 0
-18 -7 -20 -65 -20 -36 0 -65 3 -65 8 1 39 14 52 52 52 22 0 48 -5 59 -10z
m677 -102 c-3 -20 -10 -23 -50 -26 -46 -3 -48 -2 -48 22 0 24 3 26 51 26 47 0
50 -2 47 -22z m-488 -13 c0 -13 -29 -15 -200 -15 -171 0 -200 2 -200 15 0 13
29 15 200 15 171 0 200 -2 200 -15z m-1602 -112 l3 -33 -98 0 c-98 0 -99 0
-121 30 -12 16 -22 32 -22 35 0 3 53 4 118 3 l117 -3 3 -32z m1036 -129 c3 -9
6 -27 6 -40 l0 -24 -164 0 -164 0 15 40 16 40 142 0 c121 0 144 -2 149 -16z
m896 -14 c0 -23 41 -50 76 -50 26 0 43 8 66 30 29 30 33 31 112 28 l81 -3 -3
-95 c-2 -52 -4 -95 -5 -96 -1 -1 -120 -4 -265 -6 l-262 -3 0 103 0 102 100 0
c60 0 100 -4 100 -10z m-1824 -79 c-2 -3 -16 -139 -31 -301 -15 -162 -29 -301
-31 -307 -2 -7 -15 -13 -30 -13 l-27 0 7 103 c9 125 14 176 26 247 5 30 14
105 20 165 6 61 13 121 16 134 l5 24 24 -23 c14 -13 23 -26 21 -29z m-376 -40
c0 -9 -9 -24 -19 -33 -18 -15 -21 -15 -37 3 -17 19 -17 21 0 57 l18 37 19 -24
c10 -13 19 -31 19 -40z m518 -25 c7 -19 29 -48 48 -65 l35 -31 366 0 c340 0
366 -1 351 -16 -12 -12 -39 -17 -105 -20 -121 -4 -122 -4 -357 2 -142 4 -212
2 -219 -5 -19 -19 -64 -12 -97 15 -36 31 -56 66 -65 117 -6 32 -5 37 12 37 13
0 23 -12 31 -34z m921 20 c15 -18 4 -45 -23 -52 -12 -3 -122 -4 -244 -2 l-222
3 -32 33 -33 32 271 0 c218 0 274 -3 283 -14z m-1338 -76 c-6 -20 -20 -45 -31
-55 -24 -22 -25 -10 -4 41 16 39 16 39 -3 21 -11 -10 -29 -33 -39 -52 -24 -45
-34 -45 -24 0 11 48 35 82 73 105 l32 20 3 -22 c2 -12 -1 -38 -7 -58z m765 69
c13 -22 -12 -30 -31 -9 -18 19 -18 20 3 20 11 0 24 -5 28 -11z m-985 -20 c35
-25 72 -92 67 -122 -4 -20 -6 -19 -24 12 -10 18 -29 45 -41 60 l-22 26 9 -40
c5 -22 7 -41 5 -44 -7 -7 -45 82 -45 107 0 28 14 28 51 1z m2331 -126 c26 -54
109 -53 138 3 13 23 19 24 99 24 l86 0 -2 -97 c-1 -54 -2 -134 -2 -178 l-1
-80 -265 0 -265 0 0 178 0 177 99 0 c99 0 100 0 113 -27z m-2335 -34 c30 -11
73 -47 73 -61 0 -5 -12 -1 -26 8 l-26 17 27 -39 c33 -48 17 -56 -31 -15 -41
36 -49 39 -34 11 10 -19 10 -20 -9 -9 -23 15 -63 83 -54 93 10 9 48 7 80 -5z
m276 5 c10 -10 -31 -78 -55 -93 -20 -12 -20 -11 2 19 35 49 15 47 -36 -4 -26
-25 -51 -46 -55 -46 -10 0 7 48 23 67 8 11 7 12 -7 7 -32 -13 -11 18 25 38 34
18 90 24 103 12z m-153 -249 l0 -35 -105 0 -105 0 0 29 c0 34 10 37 138 39
l72 2 0 -35z m-64 -81 c56 -6 59 -8 58 -33 -1 -26 -2 -26 -82 -29 l-82 -3 0
36 c0 40 1 40 106 29z m654 -42 c0 -12 -23 -32 -36 -32 -17 0 -26 30 -13 46 8
10 16 11 30 3 10 -5 19 -13 19 -17z m813 4 c7 -19 -18 -40 -38 -32 -15 6 -20
28 -8 39 12 12 41 7 46 -7z m1500 -96 c22 0 27 -4 27 -25 l0 -25 -1555 0
-1555 0 0 23 c0 13 2 26 4 28 3 3 1822 2 3079 -1z m-2862 -159 c21 -22 29 -39
29 -65 0 -33 -2 -36 -29 -36 -25 0 -30 5 -33 26 -4 34 -27 49 -62 40 -25 -6
-27 -10 -24 -48 3 -40 6 -43 73 -83 l70 -41 3 -62 c3 -58 1 -65 -27 -92 -64
-65 -181 -23 -181 64 0 33 2 36 29 36 25 0 30 -5 33 -26 4 -37 29 -51 62 -36
21 9 26 19 26 46 0 31 -5 37 -75 81 l-75 46 0 60 c0 54 3 64 29 90 24 24 38
29 76 29 38 0 52 -5 76 -29z m218 -116 c37 -117 45 -136 52 -115 4 14 24 78
45 143 l36 118 32 -3 31 -3 0 -205 0 -205 -27 -3 -28 -3 0 113 c-1 128 -5 127
-45 -14 -25 -88 -30 -98 -51 -98 -21 0 -26 11 -54 99 -16 54 -31 104 -32 112
-1 8 -4 -35 -7 -96 -6 -109 -6 -110 -31 -110 l-25 0 -3 208 -2 208 32 -3 c32
-3 32 -3 77 -143z m457 -60 c24 -110 43 -203 44 -207 0 -5 -13 -8 -30 -8 -26
0 -30 5 -40 43 -6 23 -13 49 -16 57 -3 12 -14 15 -43 12 -38 -4 -40 -6 -51
-53 -13 -55 -21 -63 -54 -55 l-22 5 32 148 c18 82 38 174 44 206 l12 58 41 -3
41 -3 42 -200z m261 181 c24 -21 28 -32 31 -93 4 -63 2 -72 -22 -100 l-25 -30
20 -69 c29 -97 29 -99 -5 -99 -28 0 -30 3 -50 80 -18 67 -25 81 -43 83 -21 3
-22 -1 -25 -80 -3 -82 -3 -83 -30 -86 l-28 -3 0 210 0 211 74 0 c64 0 79 -3
103 -24z m298 -6 c0 -21 -6 -26 -35 -30 l-35 -5 -3 -178 -2 -178 -28 3 -27 3
-3 178 -2 177 -40 0 c-38 0 -40 2 -40 30 l0 31 107 -3 c108 -3 108 -3 108 -28z
m356 0 l30 -30 -3 -156 -3 -156 -28 -24 c-52 -45 -145 -24 -166 37 -6 18 -11
88 -11 156 0 169 18 202 108 203 35 0 49 -6 73 -30z m319 0 l0 -30 -75 0 -75
0 0 -59 0 -60 43 -3 c38 -3 42 -6 45 -30 3 -27 2 -28 -42 -28 l-46 0 0 -90 0
-90 -30 0 -30 0 0 210 0 210 105 0 105 0 0 -30z m265 0 c0 -24 -3 -25 -75 -30
-41 -3 -74 -8 -72 -12 1 -5 2 -30 2 -58 l0 -50 40 0 c38 0 40 -2 40 -30 0 -28
-2 -30 -40 -30 l-39 0 -3 -87 c-3 -86 -3 -88 -29 -91 l-26 -3 -6 128 c-4 70
-7 165 -7 211 l0 83 107 -3 c108 -3 108 -3 108 -28z m105 -181 l0 -210 -22 3
c-23 3 -23 4 -26 211 l-2 207 25 0 25 0 0 -211z m249 196 c28 -14 51 -58 51
-96 0 -14 -7 -19 -29 -19 -24 0 -30 5 -34 29 -7 32 -34 46 -67 36 -19 -6 -20
-15 -20 -139 0 -105 3 -136 15 -146 22 -19 49 -8 65 27 12 25 21 33 43 33 22
0 27 -4 27 -25 0 -91 -108 -139 -179 -79 l-31 26 0 158 0 158 31 26 c35 30 84
34 128 11z m331 -15 l0 -30 -70 0 -70 0 0 -59 0 -60 43 -3 c38 -3 42 -6 45
-30 3 -27 2 -28 -42 -28 l-46 0 0 -55 0 -55 70 0 70 0 0 -35 0 -35 -100 0
-100 0 0 210 0 210 100 0 100 0 0 -30z m-1570 -196 c11 -12 10 -18 -3 -32 -16
-15 -18 -15 -34 0 -13 14 -14 20 -3 32 7 9 16 16 20 16 4 0 13 -7 20 -16z
m1023 -273 l578 -1 -3 -27 -3 -28 -1550 0 c-1487 0 -1550 1 -1553 18 -2 10 -2
24 1 30 3 9 232 12 978 10 536 -1 1234 -2 1552 -2z m-1987 -321 c7 -32 24 -32
24 1 0 30 18 23 34 -13 14 -33 14 -33 15 -6 1 26 17 46 28 35 2 -3 0 -31 -7
-61 -12 -61 -33 -74 -45 -28 l-7 27 -10 -27 c-15 -44 -35 -34 -47 22 -14 63
-14 80 -1 80 6 0 13 -13 16 -30z m212 -28 c5 -49 -13 -74 -51 -70 -30 3 -32 5
-35 50 -3 39 1 49 20 62 19 13 25 14 43 2 11 -7 21 -27 23 -44z m162 31 c0
-14 4 -13 21 5 28 31 44 17 20 -17 -19 -26 -19 -27 0 -51 10 -14 19 -28 19
-32 0 -17 -28 -7 -43 15 l-16 22 0 -22 c-1 -14 -7 -23 -16 -23 -12 0 -15 13
-15 58 0 32 3 62 6 65 10 10 24 -2 24 -20z m210 -9 c0 -11 -4 -12 -19 -4 -13
6 -22 7 -26 0 -3 -5 5 -12 19 -16 48 -12 45 -74 -3 -74 -29 0 -57 21 -44 33 3
4 17 4 29 1 14 -4 24 -2 24 4 0 6 -10 12 -22 14 -29 4 -37 46 -13 65 21 15 55
1 55 -23z m104 10 c26 41 36 31 36 -39 0 -53 -3 -65 -16 -65 -13 0 -15 7 -12
31 l5 31 -17 -22 c-17 -22 -18 -22 -28 -4 -10 17 -11 16 -12 -8 0 -18 -5 -28
-15 -28 -12 0 -15 13 -15 58 0 32 3 62 7 66 4 4 17 -4 29 -19 l21 -26 17 25z
m135 -29 c25 -66 26 -75 6 -75 -8 0 -15 5 -15 10 0 6 -9 10 -20 10 -11 0 -20
-4 -20 -10 0 -5 -7 -10 -15 -10 -18 0 -18 -4 1 56 9 27 17 55 20 62 8 26 23
10 43 -43z m122 24 c6 -13 6 -25 -1 -39 -8 -14 -8 -26 0 -40 15 -29 -13 -27
-33 3 l-16 22 0 -22 c-1 -14 -7 -23 -16 -23 -12 0 -15 13 -15 59 0 49 3 60 18
63 27 6 52 -3 63 -23z m82 21 c29 -1 30 -2 15 -14 -13 -9 -18 -27 -18 -60 0
-34 -4 -46 -15 -46 -11 0 -15 12 -15 50 0 38 -4 50 -15 50 -8 0 -15 7 -15 16
0 11 5 14 16 10 9 -3 30 -6 47 -6z m267 -61 c0 -32 -4 -59 -9 -59 -5 0 -19 12
-30 26 l-21 27 0 -27 c0 -16 -5 -26 -15 -26 -12 0 -15 13 -15 60 0 67 14 78
42 33 l17 -28 1 26 c0 14 3 29 6 32 15 15 24 -8 24 -64z m94 58 c13 -10 17
-24 14 -62 -3 -47 -5 -50 -32 -53 -35 -4 -46 10 -46 65 0 30 5 45 18 52 22 13
25 13 46 -2z m124 -4 c2 -7 -3 -13 -12 -13 -12 0 -16 -11 -16 -50 0 -38 -4
-50 -15 -50 -11 0 -15 12 -15 45 0 30 -5 47 -16 53 -10 5 -14 15 -9 21 9 16
77 10 83 -6z m112 -19 c0 -15 6 -24 15 -24 9 0 15 9 15 24 0 27 15 42 25 26 9
-14 -5 -120 -16 -120 -5 0 -9 9 -9 20 0 14 -7 20 -21 20 -16 0 -20 -5 -16 -20
3 -13 0 -20 -9 -20 -11 0 -14 16 -14 65 0 53 3 63 15 59 8 -4 15 -17 15 -30z
m161 -36 c23 -63 22 -58 4 -58 -8 0 -15 5 -15 10 0 6 -11 10 -25 10 -14 0 -25
-4 -25 -10 0 -5 -7 -10 -14 -10 -13 0 -12 9 4 55 32 94 40 94 71 3z m113 54
c4 -2 6 -24 3 -47 -4 -26 -2 -46 5 -53 9 -9 8 -12 -4 -12 -9 0 -23 9 -31 20
l-14 21 -6 -21 c-3 -11 -10 -20 -16 -20 -12 0 -16 112 -5 123 7 6 50 -1 68
-11z m-1583 -8 c10 -12 10 -22 2 -45 -7 -17 -7 -31 -2 -35 5 -3 9 -9 9 -15 0
-16 -21 -10 -41 14 l-18 22 -1 -22 c0 -14 -6 -23 -15 -23 -12 0 -15 13 -15 60
l0 60 34 0 c18 0 39 -7 47 -16z m1700 -11 c6 -17 7 -40 2 -58 -8 -26 -13 -30
-43 -30 l-35 0 -3 58 -3 57 36 0 c30 0 37 -5 46 -27z m-2188 -10 c4 -3 2 -12
-4 -20 -16 -19 -252 -19 -268 0 -6 8 -8 17 -4 20 8 9 268 9 276 0z m2637 -8
c0 -20 -47 -27 -170 -23 -90 3 -105 5 -108 21 -3 15 9 17 137 17 117 0 141 -3
141 -15z m-1360 -69 c0 -8 -4 -18 -10 -21 -5 -3 -10 -4 -10 -1 0 2 -3 11 -6
20 -4 11 -1 16 10 16 9 0 16 -6 16 -14z"/>
<path d="M2259 4196 c-2 -2 -3 -162 -1 -355 2 -301 5 -351 17 -351 13 0 15 38
15 263 0 145 3 305 6 355 7 87 6 92 -13 92 -11 0 -22 -2 -24 -4z"/>
<path d="M2203 4170 l-23 -9 0 -334 c0 -184 3 -336 6 -340 3 -3 12 -3 20 0 12
4 14 62 14 343 0 261 3 339 13 343 6 3 8 5 2 6 -5 0 -20 -4 -32 -9z"/>
<path d="M2445 4130 c-3 -6 0 -12 7 -15 26 -10 433 0 433 10 0 14 -431 19
-440 5z"/>
<path d="M3246 4103 l6 -43 -86 0 c-70 0 -86 -3 -86 -15 0 -12 17 -15 94 -15
52 0 97 -4 100 -9 7 -10 61 -8 89 4 10 4 17 15 15 24 -2 12 -17 17 -60 19 -56
3 -56 3 -67 40 l-10 37 5 -42z"/>
<path d="M2447 4054 c-9 -10 2 -24 19 -24 8 0 14 7 14 15 0 15 -21 21 -33 9z"/>
<path d="M2850 4045 c0 -8 7 -15 15 -15 8 0 15 7 15 15 0 8 -7 15 -15 15 -8 0
-15 -7 -15 -15z"/>
<path d="M3300 3998 c0 -8 10 -23 22 -34 l21 -19 -18 30 c-26 41 -25 40 -25
23z"/>
<path d="M2447 3974 c-9 -10 2 -24 19 -24 8 0 14 7 14 15 0 15 -21 21 -33 9z"/>
<path d="M2850 3965 c0 -10 7 -15 18 -13 21 4 19 22 -2 26 -10 2 -16 -3 -16
-13z"/>
<path d="M2447 3893 c-13 -12 -7 -23 13 -23 11 0 20 7 20 15 0 15 -21 21 -33
8z"/>
<path d="M2850 3885 c0 -8 7 -15 15 -15 8 0 15 7 15 15 0 8 -7 15 -15 15 -8 0
-15 -7 -15 -15z"/>
<path d="M3410 3775 c0 -9 9 -15 25 -15 16 0 25 6 25 15 0 9 -9 15 -25 15 -16
0 -25 -6 -25 -15z"/>
<path d="M2180 3415 c0 -12 13 -15 55 -15 42 0 55 3 55 15 0 12 -13 15 -55 15
-42 0 -55 -3 -55 -15z"/>
<path d="M3611 3346 c-12 -14 -5 -26 16 -26 15 0 18 26 4 34 -5 3 -14 0 -20
-8z"/>
<path d="M2180 3325 c0 -12 13 -15 55 -15 42 0 55 3 55 15 0 12 -13 15 -55 15
-42 0 -55 -3 -55 -15z"/>
<path d="M2180 3240 c0 -18 7 -20 55 -20 48 0 55 2 55 20 0 18 -7 20 -55 20
-48 0 -55 -2 -55 -20z"/>
<path d="M2180 3155 c0 -12 13 -15 55 -15 42 0 55 3 55 15 0 12 -13 15 -55 15
-42 0 -55 -3 -55 -15z"/>
<path d="M2186 3082 c-4 -3 -6 -11 -6 -19 0 -9 16 -13 55 -13 42 0 55 3 55 15
0 8 -3 16 -7 16 -29 5 -93 6 -97 1z"/>
<path d="M3068 3683 c20 -8 15 -43 -7 -43 -11 0 -21 6 -24 13 -3 7 -26 -9 -61
-43 -76 -73 -82 -86 -46 -85 18 0 26 4 23 13 -4 10 -8 10 -22 0 -14 -11 -14
-11 -4 2 6 9 27 17 45 18 39 3 58 24 52 59 -4 23 -3 24 11 9 31 -31 57 -16 60
34 1 20 -3 26 -19 27 -12 1 -15 -1 -8 -4z"/>
<path d="M3136 3652 c-20 -27 -20 -27 0 -9 12 9 24 14 28 10 4 -4 4 0 0 10 -8
21 -5 22 -28 -11z"/>
<path d="M3137 3617 c-13 -20 -13 -24 -1 -24 8 0 12 2 9 5 -2 3 0 13 6 23 14
27 4 24 -14 -4z"/>
<path d="M3059 3573 c-16 -19 -18 -23 -4 -12 11 9 26 15 33 13 7 -1 8 0 2 3
-5 2 -8 9 -4 14 11 18 -3 8 -27 -18z"/>
<path d="M3085 3550 c-3 -5 -1 -10 4 -10 6 0 11 5 11 10 0 6 -2 10 -4 10 -3 0
-8 -4 -11 -10z"/>
<path d="M2969 3518 c0 -2 -2 -16 -4 -32 -4 -27 -3 -27 11 -10 15 18 15 18 9
-1 -6 -20 -6 -20 13 0 10 11 15 22 10 23 -4 2 -5 9 -2 15 5 8 2 8 -7 0 -16
-15 -33 -17 -24 -3 3 6 4 10 1 10 -3 0 -6 -1 -7 -2z"/>
<path d="M2906 3393 c-6 -14 -5 -15 5 -6 7 7 10 15 7 18 -3 3 -9 -2 -12 -12z"/>
<path d="M2770 3250 c0 -5 4 -10 9 -10 6 0 13 5 16 10 3 6 -1 10 -9 10 -9 0
-16 -4 -16 -10z"/>
<path d="M1137 2546 c-3 -8 -2 -18 3 -21 13 -8 24 15 12 27 -6 6 -11 4 -15 -6z"/>
<path d="M3438 2289 c-24 -13 -24 -65 0 -78 38 -20 88 30 65 65 -12 18 -46 24
-65 13z"/>
<path d="M1802 1615 c-22 -88 -23 -85 9 -85 33 0 32 -3 15 70 l-13 55 -11 -40z"/>
<path d="M2040 1645 c0 -63 1 -65 26 -65 49 0 64 16 64 69 0 53 -8 61 -61 61
l-29 0 0 -65z"/>
<path d="M2702 1698 c-8 -8 -12 -53 -12 -134 0 -98 3 -126 16 -138 8 -9 22
-16 29 -16 7 0 21 7 29 16 13 12 16 40 16 138 0 128 -6 146 -45 146 -12 0 -26
-5 -33 -12z"/>
<path d="M1700 910 c0 -20 5 -30 15 -30 10 0 15 10 15 30 0 20 -5 30 -15 30
-10 0 -15 -10 -15 -30z"/>
<path d="M2435 931 c-3 -5 -1 -12 5 -16 12 -7 30 2 30 16 0 12 -27 12 -35 0z"/>
<path d="M2903 943 c-7 -3 -13 -18 -13 -35 0 -23 4 -29 18 -26 18 3 29 45 15
58 -4 4 -14 5 -20 3z"/>
<path d="M3291 914 c0 -11 3 -14 6 -6 3 7 2 16 -1 19 -3 4 -6 -2 -5 -13z"/>
<path d="M3400 924 c0 -9 5 -14 12 -12 18 6 21 28 4 28 -9 0 -16 -7 -16 -16z"/>
<path d="M1810 924 c0 -17 22 -14 28 4 2 7 -3 12 -12 12 -9 0 -16 -7 -16 -16z"/>
<path d="M3510 910 c0 -20 5 -30 15 -30 10 0 15 10 15 30 0 20 -5 30 -15 30
-10 0 -15 -10 -15 -30z"/>
</g>
</svg>
